# xmcd CD database file
#
# Track frame offsets:
#	150
#	13172
#	29087
#	41627
#	56217
#	69792
#	85197
#	99415
#	111462
#	125967
#	135855
#	146115
#	159822
#	175232
#
# Disc length: 2460 seconds
#
# Revision: 1
# Processed by: cddbd v1.5.2PL0 Copyright (c) Steve Scherf et al.
# Submitted via: CDex 1.70beta2
#
DISCID=c4099a0e
DTITLE=Various Artist - The Stars Of Las Vegas [CD #02)
DYEAR=1900
DGENRE=Jazz
TTITLE0=Frank Sinatra - A Good Man Is Hard To Find
TTITLE1=Dean Martin - Some Enchanted Evening
TTITLE2=Sammy Davis Jr. - What I've Got On My Mind
TTITLE3=Frank Sinatra - Fools Rush In
TTITLE4=Dean Martin - Room Full Of Roses
TTITLE5=Sammy Davis Jr. - Please Don't Tell Me How The Story Ends
TTITLE6=Frank Sinatra - I'll Never Smile Again
TTITLE7=Dean Martin - Anything You Can Do
TTITLE8=Sammy Davis Jr. - You've Got To Love Yourself
TTITLE9=Frank Sinatra - I Wonder Who's Kissing Her Now
TTITLE10=Dean Martin - You're So Understanding
TTITLE11=Sammy Davis Jr. - Smoke Smoke Smoke That Cigarette
TTITLE12=Frank Sinatra - The Very Thought Of You
TTITLE13=Dean Martin - Just For Fun
EXTD=
EXTT0=
EXTT1=
EXTT2=
EXTT3=
EXTT4=
EXTT5=
EXTT6=
EXTT7=
EXTT8=
EXTT9=
EXTT10=
EXTT11=
EXTT12=
EXTT13=
PLAYORDER=
